<svg width="290" height="75" viewBox="0 0 290 75" fill="none" xmlns="http://www.w3.org/2000/svg">
<g clip-path="url(#clip0_26_351)">
<path d="M92.2977 22.531C94.679 22.531 96.6094 20.5974 96.6094 18.2123C96.6094 15.8272 94.679 13.8937 92.2977 13.8937C89.9164 13.8937 87.986 15.8272 87.986 18.2123C87.986 20.5974 89.9164 22.531 92.2977 22.531Z" fill="#27AE61"/>
<path d="M102.355 22.531C104.737 22.531 106.667 20.5974 106.667 18.2123C106.667 15.8272 104.737 13.8937 102.355 13.8937C99.9742 13.8937 98.0438 15.8272 98.0438 18.2123C98.0438 20.5974 99.9742 22.531 102.355 22.531Z" fill="#27AE61"/>
<path d="M78.8731 49.7935C78.8731 57.9577 84.1381 60.3063 84.1381 60.3063H73.6423C72.2467 60.304 70.9088 59.7476 69.9219 58.7591C68.935 57.7707 68.3795 56.4306 68.3773 55.0327V44.52C68.4051 43.82 68.2879 43.1218 68.0332 42.4693C67.7784 41.8169 67.3916 41.2244 66.897 40.729C66.4025 40.2336 65.8109 39.8462 65.1595 39.591C64.5081 39.3359 63.8111 39.2185 63.1122 39.2464H57.8471V60.3063H15.7609C5.45404 60.3063 0.197552 52.7271 0.00859313 44.9501C-0.188955 36.9064 5.07613 28.7422 15.7609 28.7422H36.8212L31.5561 39.2464H15.7609C14.3645 39.2464 13.0253 39.802 12.0379 40.791C11.0505 41.78 10.4958 43.1213 10.4958 44.52C10.4958 45.9186 11.0505 47.26 12.0379 48.2489C13.0253 49.2379 14.3645 49.7935 15.7609 49.7935H47.2912V28.7422H63.0864C73.5822 28.7422 78.8473 36.6311 78.8473 44.52L78.8731 49.7935Z" fill="#27AE61"/>
<path d="M105.104 28.7423V60.3063H84.0866C83.3945 60.3085 82.7089 60.1737 82.0691 59.9095C81.4292 59.6453 80.8479 59.2569 80.3586 58.7667C79.8692 58.2766 79.4815 57.6943 79.2177 57.0535C78.9539 56.4126 78.8193 55.7259 78.8215 55.0327V49.7935H94.5738V33.99C94.5806 32.5935 95.1375 31.2561 96.1234 30.2685C97.1093 29.281 98.4446 28.7232 99.8389 28.7164L105.104 28.7423Z" fill="#27AE61"/>
<path d="M131.352 28.7423V60.3063H110.326C109.634 60.3085 108.948 60.1737 108.309 59.9095C107.669 59.6453 107.087 59.2569 106.598 58.7667C106.109 58.2766 105.721 57.6943 105.457 57.0535C105.193 56.4126 105.059 55.7259 105.061 55.0327V49.7935H120.822V33.99C120.829 32.5935 121.386 31.2561 122.371 30.2685C123.357 29.281 124.693 28.7232 126.087 28.7164L131.352 28.7423Z" fill="#27AE61"/>
<path d="M141.771 4.94667C145.67 19.2877 158.614 26.0065 158.614 26.0065H152.335V60.3063H136.617C135.928 60.3097 135.244 60.1767 134.606 59.9151C133.968 59.6534 133.388 59.2681 132.899 58.7814C132.41 58.2947 132.021 57.716 131.756 57.0787C131.49 56.4413 131.353 55.7577 131.352 55.0671V49.7935H141.771V4.94667Z" fill="#27AE61"/>
<path d="M194.103 49.7591C194.103 57.9233 199.369 60.3063 199.369 60.3063H183.573V55.0327C183.576 55.7259 183.441 56.4126 183.177 57.0535C182.913 57.6943 182.526 58.2766 182.036 58.7667C181.547 59.2569 180.966 59.6453 180.326 59.9095C179.686 60.1737 179 60.3085 178.308 60.3063H162.547V49.7935H183.573V44.52C183.604 43.8193 183.488 43.12 183.235 42.4663C182.981 41.8127 182.594 41.2191 182.099 40.7232C181.604 40.2273 181.011 39.8399 180.359 39.5857C179.706 39.3315 179.008 39.2159 178.308 39.2464H162.547C162.547 39.2464 167.812 33.9728 167.812 28.6992H178.308C188.838 28.6992 194.103 36.5881 194.103 44.52V49.7591Z" fill="#27AE61"/>
<path d="M220.343 28.7423V60.3063H199.317C198.625 60.3085 197.939 60.1737 197.299 59.9095C196.66 59.6453 196.078 59.2569 195.589 58.7667C195.1 58.2766 194.712 57.6943 194.448 57.0535C194.184 56.4126 194.05 55.7259 194.052 55.0327V49.7935H209.804V33.99C209.811 32.5935 210.368 31.2561 211.354 30.2685C212.34 29.281 213.675 28.7232 215.069 28.7164L220.343 28.7423Z" fill="#27AE61"/>
<path d="M274.239 28.6992C284.778 28.6992 290 36.5881 290 44.52V60.3063H241.326V55.0327C241.328 55.7259 241.194 56.4126 240.93 57.0535C240.666 57.6943 240.278 58.2766 239.789 58.7667C239.3 59.2569 238.718 59.6453 238.078 59.9095C237.439 60.1737 236.753 60.3085 236.061 60.3063H225.565C224.873 60.3085 224.187 60.1737 223.548 59.9095C222.908 59.6453 222.326 59.2569 221.837 58.7667C221.348 58.2766 220.96 57.6943 220.696 57.0535C220.432 56.4126 220.298 55.7259 220.3 55.0327V49.7935H230.83V33.99L241.326 28.7164V35.4783C244.246 30.5575 248.077 28.7164 251.856 28.7164L274.239 28.6992ZM279.504 49.7935V44.52C279.535 43.8193 279.419 43.12 279.165 42.4663C278.912 41.8127 278.525 41.2191 278.03 40.7232C277.535 40.2273 276.942 39.8399 276.289 39.5857C275.637 39.3315 274.939 39.2159 274.239 39.2464H251.856C244.839 39.2464 241.326 44.563 241.326 49.7935H279.504Z" fill="#27AE61"/>
<path d="M27.3389 34.5836C27.2788 34.4202 27.2186 34.2567 27.1671 34.0847C27.1156 33.9126 27.0211 33.6459 26.9266 33.4308C26.8321 33.2158 26.6346 32.7942 26.48 32.4501C26.3254 32.106 26.291 32.0114 26.1879 31.7963L26.1106 31.6242C26.0535 31.4854 25.9875 31.3503 25.9131 31.2199C25.6468 30.6951 25.372 30.2134 25.0542 29.7402L24.8223 29.3445C24.7729 29.2581 24.7184 29.1748 24.6591 29.095C24.3818 28.6236 24.0718 28.1723 23.7315 27.7443C23.5855 27.5465 23.4309 27.3486 23.2849 27.1421L22.8726 26.6604C22.4648 26.179 22.0319 25.7195 21.5756 25.2839C21.3094 25.0172 21.0517 24.7849 20.794 24.5441L20.3818 24.1999L20.1241 23.9849C19.9695 23.8558 19.8235 23.7268 19.6603 23.6063L19.5057 23.5031L18.5523 22.8063L18.1057 22.5396L17.994 22.4622L17.4014 22.1008L16.8946 21.8341L16.5511 21.6535L16.2333 21.49C15.8639 21.3094 15.486 21.1459 15.1167 20.9997L12.6173 19.8641L15.194 19.3221C15.7148 19.2149 16.2432 19.1488 16.7744 19.1242H17.7965C18.0026 19.1242 18.2002 19.1242 18.4063 19.1242H18.5008C18.9302 19.1672 19.3597 19.2189 19.8492 19.2963H20.064C20.5658 19.3805 21.062 19.4955 21.5499 19.6404H21.6529C22.091 19.7695 22.5977 19.9157 23.0873 20.1136L23.4996 20.2684C23.8002 20.3803 24.1008 20.5093 24.3585 20.6469C24.4618 20.6889 24.5623 20.7378 24.6591 20.7932C25.1304 21.0143 25.5892 21.2613 26.0333 21.533L26.1364 21.5933C26.5401 21.8341 26.9438 22.1008 27.3475 22.3675L27.4334 22.4277L27.7941 22.703C28.5598 23.2623 29.2806 23.8807 29.9499 24.5527C30.1647 23.9246 30.3794 23.3741 30.5941 22.8321L30.9463 21.9718L31.0751 21.6449C31.2555 21.1975 31.4273 20.7846 31.6248 20.3889L32.8359 17.8768L32.9647 17.6531C33.3168 16.9907 33.6776 16.3369 34.0555 15.6917L34.2187 15.4164C34.6911 14.6163 35.1635 13.8851 35.6445 13.1882L35.696 13.1108C35.9279 12.7495 36.1856 12.3882 36.4604 12.0182L36.7009 11.7085C36.9328 11.4074 37.1304 11.1494 37.3365 10.8999L38.2727 9.90193C38.5396 9.57751 38.8265 9.27007 39.1316 8.98142L39.2089 8.8868L41.193 6.91673L43.409 5.19615C43.7879 4.90198 44.1868 4.63464 44.6028 4.39609L45.2298 4.03475L45.8654 3.68205L47.1452 2.99381L48.4937 2.48624C48.9231 2.31419 49.3526 2.16793 49.825 2.02168L50.2974 1.87543C50.6059 1.79581 50.9184 1.73263 51.2336 1.68617H51.3366C52.1955 1.55713 53.0544 1.4539 53.982 1.38508L56.9367 1.16139L54.5661 2.93359C53.7072 3.55299 53.0544 4.03476 52.436 4.4563L52.3415 4.51653C52.2083 4.5946 52.0819 4.68381 51.9636 4.78322C51.8949 4.83483 51.5943 5.11873 51.5943 5.11873L51.0532 5.63489C50.9003 5.78965 50.7367 5.93339 50.5636 6.06504L49.7047 6.78769L48.8458 7.734C48.6397 7.98348 48.4421 8.20716 48.2274 8.43083C48.2274 8.43083 47.8409 8.85238 47.7808 8.9298L47.6262 9.12768L47.5231 9.27392L47.4372 9.39437L45.9857 11.3644L44.7574 13.3345C44.7041 13.4011 44.6581 13.4732 44.62 13.5496L44.5169 13.7216C44.2679 14.1174 44.0445 14.5303 43.8212 14.9346L43.5893 15.3648L43.0053 16.3971C42.8335 16.724 42.6617 17.0595 42.5071 17.4037C42.3525 17.7478 42.155 18.1435 41.9832 18.479C41.8114 18.8145 41.6138 19.1845 41.4592 19.5458L41.339 19.8211C41.0556 20.4749 40.7721 21.1287 40.4801 21.7739L39.5782 23.9677C39.4151 24.329 39.2862 24.6645 39.1574 25L38.9512 25.5506L38.6936 26.2216L38.3328 27.2023C38.058 27.9422 37.7831 28.6992 37.5255 29.4563L37.2163 30.3166L37.0788 30.7295C36.9844 30.979 36.9156 31.1941 36.8469 31.4092L36.3144 33.0437L32.0199 47.2815L27.3389 34.5836Z" fill="#132033"/>
<path d="M54.025 2.15932C53.3035 2.6927 52.6164 3.20027 51.9293 3.65623C51.749 3.76083 51.5767 3.87872 51.4139 4.00893L51.0704 4.31864L50.7268 4.64555L50.452 4.90364C50.3145 5.04129 50.1771 5.16173 50.0311 5.28217L49.49 5.75532L49.3096 5.91878L49.1207 6.07364L48.3305 7.01135L48.2446 7.10598C48.0642 7.32105 47.8838 7.52753 47.6777 7.7426L47.4372 8.00068L47.2139 8.25877C47.1366 8.3534 47.0679 8.45664 46.9906 8.55987C46.9133 8.66311 46.8617 8.72333 46.8016 8.81796L45.4789 10.6074L45.3844 10.7278L44.5942 12.001L44.1218 12.7495C44.036 12.8785 43.9587 13.0162 43.8814 13.1452C43.5721 13.6442 43.2973 14.1604 43.0224 14.6765L42.9451 14.8228L42.6102 15.4164L42.3525 15.8723C42.1721 16.2164 41.9918 16.5692 41.8286 16.9305C41.6654 17.2746 41.5022 17.6101 41.3304 17.937C41.1586 18.2639 40.9525 18.6683 40.7893 19.0468C40.7893 19.1328 40.712 19.2275 40.6691 19.3135C40.3942 19.9587 40.1108 20.6039 39.8102 21.2405L39.166 22.8063L38.8911 23.4773C38.7365 23.8214 38.5905 24.1741 38.4617 24.5354C38.4016 24.6731 38.35 24.8193 38.2985 24.957C38.2469 25.0946 38.1009 25.4818 37.9979 25.7312C37.8948 25.9807 37.7574 26.4023 37.6285 26.7378C37.3537 27.4862 37.0788 28.2433 36.7696 29.0089C36.6666 29.3014 36.5635 29.6025 36.469 29.8692C36.4175 30.0155 36.366 30.1531 36.323 30.2908C36.2028 30.6091 36.1083 30.9274 36.0052 31.2371C35.8592 31.693 35.7046 32.149 35.5586 32.6049L34.8715 34.8589L31.9598 44.4167L28.6015 35.3665L28.1634 34.1793C28.0174 33.7921 27.8972 33.3706 27.734 32.9835C27.4677 32.4501 27.2358 31.8823 26.9867 31.3317C26.8837 31.1167 26.7978 30.9016 26.6775 30.6951C26.4199 30.1875 26.1364 29.6886 25.8186 29.1896L25.6898 28.9745L25.4063 28.51C24.9758 27.8283 24.5085 27.1706 24.0063 26.5399L23.929 26.4367C23.3882 25.7776 22.8148 25.146 22.2112 24.544L21.421 23.8042C21.2407 23.6407 21.0517 23.4859 20.8628 23.331C20.6738 23.1762 20.4333 22.9697 20.21 22.8063L20.064 22.703C19.729 22.4621 19.394 22.2213 19.0419 21.989L18.5781 21.7051C18.3376 21.5502 18.0971 21.3954 17.848 21.2491L17.1523 20.8878C16.9805 20.7932 16.8087 20.6985 16.6198 20.6125C16.2333 20.4233 15.8382 20.2512 15.4431 20.0964H15.3486C15.8269 19.9976 16.3123 19.9371 16.8001 19.9157H17.7879C17.9683 19.9157 18.14 19.9157 18.3204 19.9157H18.3805C18.8186 19.9587 19.2394 20.0103 19.6946 20.0791L19.9523 20.1222C20.399 20.1989 20.8407 20.3023 21.275 20.4319H21.3351C21.8005 20.5575 22.2592 20.7068 22.7094 20.8792H22.7609L23.053 20.9824C23.3278 21.0943 23.6112 21.2061 23.9119 21.3352L24.1523 21.447C24.6247 21.6707 25.0714 21.9202 25.518 22.1868L25.6125 22.2385C26.0076 22.4793 26.4027 22.7374 26.7892 22.9955L26.8751 23.0557C27.7315 23.6712 28.5385 24.3529 29.2886 25.0946C29.5978 25.4215 29.9242 25.7312 30.2248 26.0581C30.5512 25.0602 30.9033 24.0623 31.2984 23.0816C31.4702 22.6772 31.6248 22.2729 31.788 21.8771C31.9426 21.4814 32.1144 21.0943 32.2948 20.7071V20.6555L32.6898 20.2254L33.5487 18.4532V18.393L33.6776 18.1693C34.0211 17.5241 34.3819 16.8789 34.7512 16.2422L34.9058 15.9756C35.3524 15.2357 35.8163 14.5045 36.3058 13.7904V13.7474C36.5377 13.3861 36.7868 13.0334 37.0445 12.6807L37.285 12.3796C37.4825 12.1129 37.6887 11.8462 37.8948 11.5881C37.9463 11.5365 37.9893 11.4763 38.0322 11.4246L38.4016 10.9687C38.539 10.7966 38.685 10.6246 38.831 10.4611C39.0715 10.16 39.3292 9.87611 39.604 9.60081L39.6813 9.52339L41.631 7.57914L43.8126 5.85856C44.1558 5.58547 44.5206 5.34091 44.9034 5.12731C45.1096 5.00687 45.3071 4.88643 45.5219 4.77459L45.9084 4.55952L46.166 4.40467L47.3685 3.75946L47.5575 3.69063L48.6654 3.26909C49.0949 3.10563 49.5243 2.96799 49.9538 2.83034C50.1083 2.77255 50.2661 2.72372 50.4262 2.6841C50.6892 2.61459 50.9559 2.56002 51.225 2.52064H51.3109C52.1698 2.38299 53.0287 2.27977 53.8876 2.21955M59.668 0.0602112L53.7587 0.498967C52.8569 0.56779 51.9464 0.671012 51.0618 0.808658H51.0188H50.89C50.5716 0.857 50.2562 0.923068 49.9452 1.00653C49.7474 1.05614 49.5524 1.11644 49.3612 1.18719C48.9403 1.31623 48.5022 1.47109 48.0127 1.65175L46.9133 2.06469L46.7329 2.13351H46.6213L46.5268 2.19372L45.3157 2.83894L45.1697 2.91638L45.0752 2.97659L44.7403 3.16586L44.1133 3.52718C43.6435 3.7761 43.1953 4.06386 42.7734 4.38746L40.6261 6.10804L40.5402 6.16827L40.4715 6.23709L38.5218 8.18134L38.4101 8.30178C38.1073 8.60176 37.8206 8.91765 37.5512 9.24811L37.4997 9.30832C37.3623 9.46317 37.2334 9.62663 37.1132 9.78148L36.7782 10.1772L36.7095 10.2718L36.6494 10.3321L35.988 11.1924L35.9021 11.3128C35.842 11.3902 35.7819 11.459 35.739 11.5279C35.4555 11.9064 35.1893 12.2849 34.9488 12.6462C34.4592 13.3517 33.9868 14.0915 33.5058 14.9002L33.4027 15.0809L33.3426 15.1755C32.9733 15.8035 32.6125 16.4573 32.226 17.1714V17.2316L32.1316 17.395V17.4553L31.2727 19.2275L30.9892 19.8125V19.8641V19.9071C30.8174 20.277 30.6457 20.6641 30.4481 21.1459L30.3107 21.4814C30.199 21.7653 30.0874 22.0492 29.9671 22.3417C29.8469 22.6342 29.8211 22.6944 29.7524 22.8751C29.3401 22.5138 28.8935 22.1868 28.4812 21.8599L28.1806 21.6277H28.1205L28.026 21.5674C27.5794 21.2663 27.1671 20.9997 26.7806 20.7674L26.6775 20.7071C26.1622 20.3974 25.6812 20.1394 25.2088 19.9157L24.9683 19.7952C24.6333 19.6404 24.307 19.5027 23.972 19.3737L23.7143 19.2791H23.637H23.5941C23.1045 19.0898 22.6149 18.9436 22.1597 18.8059H22.0996H21.9965C21.5146 18.6604 21.0241 18.5454 20.5278 18.4618L20.2529 18.4188C19.8063 18.35 19.3425 18.2897 18.8615 18.2467H18.664C18.4578 18.2467 18.2603 18.2467 18.0713 18.2467H16.6971C16.1199 18.2755 15.5457 18.3474 14.9793 18.4618L9.18167 19.6404L14.6787 21.7395L14.7903 21.7825C15.1596 21.9288 15.5118 22.0836 15.8554 22.2471L16.1474 22.3933L16.3363 22.4966L16.4909 22.5826C16.6541 22.66 16.8087 22.746 16.9633 22.8321C17.1179 22.9181 17.3584 23.0643 17.5474 23.1848L17.6419 23.245L17.8308 23.3654L18.0713 23.5117C18.3633 23.7096 18.6725 23.9246 19.0247 24.1827L19.1364 24.2601C19.2824 24.3646 19.4229 24.4766 19.5572 24.5957L19.7032 24.7161L19.8149 24.8107L20.2014 25.129L20.9401 25.8259C21.37 26.2422 21.7772 26.6816 22.1597 27.1421C22.2799 27.2798 22.4002 27.4088 22.5118 27.5464L22.9842 28.1745C23.2955 28.5575 23.5824 28.9597 23.8431 29.3789V29.4305V29.4735C23.8939 29.5449 23.9398 29.6196 23.9806 29.6972L24.0922 29.8864L24.2125 30.0843C24.4959 30.5575 24.7622 31.0306 25.0027 31.4952C25.0628 31.5984 25.1143 31.7102 25.1659 31.8221L25.2432 32.0028C25.3462 32.2178 25.4407 32.4329 25.5352 32.648C25.6297 32.863 25.8358 33.3276 25.9904 33.6545C26.0591 33.8094 26.1192 33.9986 26.188 34.2051L26.3683 34.7299L26.815 35.9171L30.1733 44.9673L31.9426 49.7419L33.4199 44.8727L36.3316 35.3063L37.0187 33.0523L37.1819 32.5619C37.2764 32.2866 37.3709 32.0027 37.4568 31.7016L37.5512 31.4264C37.6114 31.2199 37.6801 31.022 37.7488 30.8155C37.7488 30.7553 37.7488 30.6951 37.8089 30.6263L37.8862 30.4112C37.9635 30.1703 38.0494 29.9381 38.1353 29.7058L38.1868 29.5423C38.4531 28.7853 38.7193 28.0454 38.9942 27.297L39.1488 26.8668L39.3635 26.3076C39.4408 26.1184 39.5181 25.8861 39.604 25.6624L39.6556 25.5248L39.7414 25.3097L39.8187 25.1118C39.9304 24.8107 40.0592 24.4666 40.2052 24.1655L40.4801 23.4945L41.1071 21.9718C41.4077 21.3352 41.6826 20.6899 41.966 20.0361V19.9329L42.0433 19.7608C42.1807 19.4425 42.3439 19.1242 42.5243 18.7629C42.7047 18.4016 42.8764 18.0833 43.0482 17.7133C43.0467 17.6904 43.0467 17.6674 43.0482 17.6445C43.177 17.3434 43.3317 17.0423 43.5206 16.681L43.6924 16.3799L43.7611 16.2509L43.8899 16.0272L44.0961 15.6659L44.1648 15.5368L44.3194 15.2701C44.5427 14.8486 44.7574 14.4614 44.9893 14.0915L45.101 13.8937C45.1219 13.858 45.1448 13.8235 45.1697 13.7904V13.7474V13.7044L45.6421 12.9473L46.4065 11.7343L46.4581 11.6655L48.1501 9.90192V9.84169V9.78148V9.72987L48.2188 9.63523V9.58362L48.3305 9.42876L48.5108 9.2223L48.5967 9.12767L48.7342 8.98141C48.9059 8.79214 49.1378 8.54267 49.3612 8.26738L49.4299 8.18134L50.1342 7.32105L50.2201 7.24363L50.409 7.08017L50.9158 6.64143C51.1047 6.48658 51.2765 6.32312 51.4225 6.19408L51.7145 5.91018L51.9464 5.68651L52.0323 5.60907C52.1082 5.53266 52.1885 5.46084 52.2728 5.394C52.3432 5.33678 52.4179 5.28502 52.4961 5.23916L52.5734 5.19614L52.6422 5.15312C53.2606 4.73158 53.9391 4.29283 54.7722 3.62181L59.5306 0.0860188L59.668 0.0602112Z" fill="white"/>
<path d="M205.982 75C208.363 75 210.294 73.0665 210.294 70.6814C210.294 68.2962 208.363 66.3627 205.982 66.3627C203.601 66.3627 201.67 68.2962 201.67 70.6814C201.67 73.0665 203.601 75 205.982 75Z" fill="#27AE61"/>
<path d="M216.031 75C218.413 75 220.343 73.0665 220.343 70.6814C220.343 68.2962 218.413 66.3627 216.031 66.3627C213.65 66.3627 211.72 68.2962 211.72 70.6814C211.72 73.0665 213.65 75 216.031 75Z" fill="#27AE61"/>
<path d="M116.948 75C119.33 75 121.26 73.0665 121.26 70.6814C121.26 68.2962 119.33 66.3627 116.948 66.3627C114.567 66.3627 112.637 68.2962 112.637 70.6814C112.637 73.0665 114.567 75 116.948 75Z" fill="#27AE61"/>
<path d="M126.997 75C129.379 75 131.309 73.0665 131.309 70.6814C131.309 68.2962 129.379 66.3627 126.997 66.3627C124.616 66.3627 122.686 68.2962 122.686 70.6814C122.686 73.0665 124.616 75 126.997 75Z" fill="#27AE61"/>
<path d="M26.5315 75C28.9128 75 30.8432 73.0665 30.8432 70.6814C30.8432 68.2962 28.9128 66.3627 26.5315 66.3627C24.1502 66.3627 22.2198 68.2962 22.2198 70.6814C22.2198 73.0665 24.1502 75 26.5315 75Z" fill="#27AE61"/>
<path d="M36.5893 75C38.9706 75 40.901 73.0665 40.901 70.6814C40.901 68.2962 38.9706 66.3627 36.5893 66.3627C34.208 66.3627 32.2776 68.2962 32.2776 70.6814C32.2776 73.0665 34.208 75 36.5893 75Z" fill="#27AE61"/>
</g>
<defs>
<clipPath id="clip0_26_351">
<rect width="290" height="75" fill="white"/>
</clipPath>
</defs>
</svg>
